<svg xmlns="http://www.w3.org/2000/svg" width="28" height="28" viewBox="0 0 28 28">
  <g id="Group_11815" data-name="Group 11815" transform="translate(-1862 -962)">
    <circle id="Ellipse_39" data-name="Ellipse 39" cx="14" cy="14" r="14" transform="translate(1862 962)" fill="#ff4d4f"/>
    <path id="Path_6805" data-name="Path 6805" d="M10.558,3.173l1.385,1.385m0,0,1.385,1.385M11.942,4.558l1.385-1.385M11.942,4.558,10.558,5.942m.923,8.308A9.231,9.231,0,0,1,2.25,5.019V3.635A1.385,1.385,0,0,1,3.635,2.25h.844a.692.692,0,0,1,.671.524L5.831,5.5a.691.691,0,0,1-.257.722l-.8.6a.654.654,0,0,0-.234.745,7.406,7.406,0,0,0,4.4,4.4.653.653,0,0,0,.745-.234l.6-.8A.692.692,0,0,1,11,10.669l2.722.681a.692.692,0,0,1,.524.671v.844a1.385,1.385,0,0,1-1.385,1.385Z" transform="translate(1868.25 968.25)" fill="none" stroke="#fff" stroke-linecap="round" stroke-linejoin="round" stroke-width="1"/>
  </g>
</svg>
