<svg xmlns="http://www.w3.org/2000/svg" width="28" height="28" viewBox="0 0 28 28">
  <g id="Group_11827" data-name="Group 11827" transform="translate(-1794 -962)">
    <circle id="Ellipse_37" data-name="Ellipse 37" cx="14" cy="14" r="14" transform="translate(1794 962)" fill="#188359"/>
    <path id="Path_6804" data-name="Path 6804" d="M9.635,6.865V4.1m0,2.769H12.4m-2.769,0,3.692-3.692M11.481,14.25A9.231,9.231,0,0,1,2.25,5.019V3.635A1.385,1.385,0,0,1,3.635,2.25h.844a.692.692,0,0,1,.671.524L5.831,5.5a.691.691,0,0,1-.257.722l-.8.6a.654.654,0,0,0-.234.745,7.406,7.406,0,0,0,4.4,4.4.653.653,0,0,0,.745-.234l.6-.8A.692.692,0,0,1,11,10.669l2.722.681a.692.692,0,0,1,.524.671v.844a1.385,1.385,0,0,1-1.385,1.385Z" transform="translate(1800.25 968.25)" fill="none" stroke="#fff" stroke-linecap="round" stroke-linejoin="round" stroke-width="1"/>
  </g>
</svg>
