<svg xmlns="http://www.w3.org/2000/svg" width="28" height="28" viewBox="0 0 28 28">
  <g id="Group_11827" data-name="Group 11827" transform="translate(-1826 -962)">
    <circle id="Ellipse_38" data-name="Ellipse 38" cx="14" cy="14" r="14" transform="translate(1826 962)" fill="#e8e8e8"/>
    <path id="Path_6806" data-name="Path 6806" d="M2.25,5.019a9.231,9.231,0,0,0,9.231,9.231h1.385a1.385,1.385,0,0,0,1.385-1.385v-.844a.692.692,0,0,0-.524-.671L11,10.669a.692.692,0,0,0-.722.257l-.6.8a.653.653,0,0,1-.745.234,7.406,7.406,0,0,1-4.4-4.4.653.653,0,0,1,.234-.745l.8-.6A.691.691,0,0,0,5.831,5.5L5.15,2.774a.692.692,0,0,0-.671-.524H3.635A1.385,1.385,0,0,0,2.25,3.635Z" transform="translate(1832.25 968.25)" fill="none" stroke="rgba(0,0,0,0.88)" stroke-linecap="round" stroke-linejoin="round" stroke-width="1.1"/>
  </g>
</svg>
