<svg xmlns="http://www.w3.org/2000/svg" width="52.607" height="52.059" viewBox="0 0 52.607 52.059">
  <g id="empty-calls" transform="translate(-968.439 -431.502)">
    <path id="Union_3" data-name="Union 3" d="M11359.913,192.5c-5.133-1.727-13.158-7.545-14.674-8.936h0l-.031-.031c-.038-.036-.072-.068-.1-.1l0,0c-1.11-1.128-9.053-9.355-11.542-16.761-2.684-7.972-1.86-14.192,2.011-19.675s9.661,2.054,9.661,2.054l2.571,2.977s3.88,3.229,1.046,6.349-4.54,3.732-2.926,6.869c1.492,2.9,6.736,8.367,7.537,9.194l.068-.074a67.547,67.547,0,0,0,7.8,5.769c3.14,1.614,3.754-.094,6.872-2.926s6.349,1.046,6.349,1.046l2.975,2.572s7.54,5.789,2.057,9.66a18.586,18.586,0,0,1-11.032,3.578A27.12,27.12,0,0,1,11359.913,192.5Z" transform="translate(-10361.34 287.303)" fill="#fafafa"/>
    <path id="Path_6891" data-name="Path 6891" d="M-10425.632,271.246c-.016-.016-7.2-7.306-9.883-15.27s-1.859-14.193,2.012-19.675,9.662,2.056,9.662,2.056l2.571,2.975s3.88,3.229,1.046,6.348-4.541,3.734-2.926,6.871,6.433,8.281,6.433,8.281" transform="translate(11407.74 198)" fill="rgba(250,250,250,0)" stroke="#d9d9d9" stroke-linecap="round" stroke-width="1.5"/>
    <path id="Path_6893" data-name="Path 6893" d="M-10428.619,238.431a36.721,36.721,0,0,0-6.9,11.9c-2.682,7.971-1.859,14.193,2.012,19.675s9.662-2.056,9.662-2.056l2.571-2.975s3.88-3.229,1.046-6.348-4.541-3.734-2.926-6.871a31.777,31.777,0,0,1,3.926-5.639" transform="translate(748.246 -9955.711) rotate(-90)" fill="rgba(250,250,250,0)" stroke="#d9d9d9" stroke-linecap="round" stroke-width="1.5"/>
    <line id="Line_408" data-name="Line 408" y1="39" x2="39" transform="translate(969.5 443.5)" fill="none" stroke="#d9d9d9" stroke-linecap="round" stroke-width="1.5"/>
  </g>
</svg>
