<svg xmlns="http://www.w3.org/2000/svg" width="37.344" height="37.344" viewBox="0 0 37.344 37.344">
  <g id="check-circle" transform="translate(-64 -64)">
    <path id="Path_6896" data-name="Path 6896" d="M332.909,353h-1.955a1.327,1.327,0,0,0-1.079.554l-6.552,9.086-2.968-4.118a1.333,1.333,0,0,0-1.079-.554h-1.955a.335.335,0,0,0-.271.529l5.193,7.2a1.325,1.325,0,0,0,2.155,0l8.777-12.17A.332.332,0,0,0,332.909,353Z" transform="translate(-242.443 -276.955)" fill="#389e0d"/>
    <path id="Path_6897" data-name="Path 6897" d="M82.672,64a18.672,18.672,0,1,0,18.672,18.672A18.673,18.673,0,0,0,82.672,64Zm0,34.176a15.5,15.5,0,1,1,15.5-15.5A15.507,15.507,0,0,1,82.672,98.176Z" fill="#389e0d"/>
  </g>
</svg>
