<svg xmlns="http://www.w3.org/2000/svg" width="32" height="32" viewBox="0 0 32 32">
  <g id="client-icon" transform="translate(0.387)">
    <circle id="Ellipse_46" data-name="Ellipse 46" cx="16" cy="16" r="16" transform="translate(-0.387)" fill="#ffc53d"/>
    <path id="user" d="M150.074,126.656a7.358,7.358,0,0,0-3.9-3.9l-.023-.01a4.83,4.83,0,1,0-5.658,0l-.023.01A7.323,7.323,0,0,0,136,129.349a.156.156,0,0,0,.156.16h1.169a.156.156,0,0,0,.156-.152,5.847,5.847,0,0,1,11.69,0,.154.154,0,0,0,.156.152h1.169a.156.156,0,0,0,.156-.16A7.26,7.26,0,0,0,150.074,126.656Zm-6.751-4.473a3.353,3.353,0,1,1,2.369-.982A3.329,3.329,0,0,1,143.323,122.183Z" transform="translate(-127.433 -106.455)" fill="#fff"/>
  </g>
</svg>
