<svg xmlns="http://www.w3.org/2000/svg" width="16" height="16" viewBox="0 0 16 16">
  <path id="edit" d="M114.914,124.8a.809.809,0,0,0,.12-.01l3.364-.59a.2.2,0,0,0,.106-.056l8.478-8.478a.2.2,0,0,0,0-.282l-3.324-3.326a.2.2,0,0,0-.284,0l-8.478,8.478a.2.2,0,0,0-.056.106l-.59,3.364a.67.67,0,0,0,.188.6A.678.678,0,0,0,114.914,124.8Zm1.348-3.488,7.254-7.252,1.466,1.466-7.254,7.252-1.778.314Zm11.1,5.168H112.64a.639.639,0,0,0-.64.64v.72a.16.16,0,0,0,.16.16h15.68a.16.16,0,0,0,.16-.16v-.72A.639.639,0,0,0,127.36,126.48Z" transform="translate(-112 -112)" fill="#595959"/>
</svg>
